Nanny McPhee and the Big Bang (2010) 

Alternatieve titel: Nanny McPhee 2: De Vonken Vliegen Eraf 

Verenigd Koninkrijk / Frankrijk
Komedie / Familie
109 minuten

geregisseerd door Susanna White
met Emma Thompson, Ralph Fiennes en Maggie Gyllenhaal

Nanny McPhee (Thompson) arriveert om een jonge moeder te helpen (Gyllenhaal) die probeert haar familieboerderij te runnen, terwijl haar echtgenoot van huis is. De magische kinderjuf gebruikt haar krachten om de kinderen van de moeder en hun twee verwende neven vijf nieuwe lessen te leren.
 
http://www.imdb.com/title/tt1415283/
 
http://www.moviemeter.nl/film/61722

Nederlands gesproken.

Hoesjes bijgevoegd.

General
Complete name                    : Nanny McPhee-And the Big Bang XviD-DVDRip[Ned]2010 2Lions-Team\Nanny McPhee-And the Big Bang XviD-DVDRip[Ned]2010 2Lions-Team.avi
Format                           : AVI
Format/Info                      : Audio Video Interleave
File size                        : 1.36 GiB
Duration                         : 1h 49mn
Overall bit rate                 : 1 785 Kbps
Writing application              : VirtualDubMod 1.5.4.1 (build 2178/release)
Writing library                  : VirtualDubMod build 2178/release

Video
ID                               : 0
Format                           : MPEG-4 Visual
Format profile                   : Simple@L3
Format settings, BVOP            : No
Format settings, QPel            : No
Format settings, GMC             : No warppoints
Format settings, Matrix          : Default (H.263)
Codec ID                         : XVID
Codec ID/Hint                    : XviD
Duration                         : 1h 49mn
Bit rate                         : 1 328 Kbps
Width                            : 720 pixels
Height                           : 304 pixels
Display aspect ratio             : 2.35:1
Frame rate                       : 23.976 fps
Resolution                       : 8 bits
Colorimetry                      : 4:2:0
Scan type                        : Progressive
Bits/(Pixel*Frame)               : 0.253
Stream size                      : 1.01 GiB (74%)
Writing library                  : XviD 1.1.2 (UTC 2006-11-01)

Audio
ID                               : 1
Format                           : AC-3
Format/Info                      : Audio Coding 3
Format_Settings_ModeExtension    : CM (complete main)
Codec ID                         : 2000
Duration                         : 1h 49mn
Bit rate mode                    : Constant
Bit rate                         : 448 Kbps
Channel(s)                       : 6 channels
Channel positions                : Front: L C R, Side: L R, LFE
Sampling rate                    : 48.0 KHz
Stream size                      : 350 MiB (25%)
Alignment                        : Split accross interleaves
Interleave, duration             : 42 ms (1.00 video frame)
Interleave, preload duration     : 500 ms

Thanks to Bradje for the source.

Brought to you by 
2Lions Team

meer zien??
                   
Kom dan eens kijken op ons NIEUWE forum 
            
http://www.2lions-site.nl/

2Lions the site to be for all your Dutch MOVIES and more

******************************************

DON T HIT AND RUN Niet gelijk afhaken als de FILM binnen is blijf seeden. 

Don`t quit after you finished the download, but keep seeding

There are fake torrents from uploaders who use our team name.
Those are not ours, or members from our team.
We 2Lions-Team are not responsible for the fake posts on our name

Wij 2Lions-Team zijn niet verantwoordelijk voor die zieke FAKE posten die op onze naam worden gedaan

Please check our site !!!

to the fakers , get a life !!!